<svg xmlns="http://www.w3.org/2000/svg" viewBox="0 0 409.25 409.01"><defs><style>.cls-1{fill:none;stroke:#d32f7f;stroke-width:15px;}.cls-1,.cls-8,.cls-9{stroke-miterlimit:10;}.cls-2{fill:#f9c313;}.cls-3{fill:#518bc4;}.cls-4{fill:#99ba7a;}.cls-5{fill:#dca406;}.cls-6{fill:#2c81ce;}.cls-7{fill:#88ab5e;}.cls-8{fill:#ff7bac;}.cls-8,.cls-9{stroke:#ea4988;stroke-width:10px;}.cls-9{fill:#fff;}</style></defs><g id="Layer_1" data-name="Layer 1"><line class="cls-1" x1="131.44" y1="95.87" x2="131.44" y2="314.41"/><line class="cls-1" x1="166.78" y1="64.41" x2="202.17" y2="64.41"/><line class="cls-1" x1="166.78" y1="354.29" x2="202.17" y2="354.29"/><line class="cls-1" x1="74.72" y1="209.91" x2="202.17" y2="209.91"/><circle class="cls-2" cx="40" cy="209.91" r="40"/><circle class="cls-3" cx="131.44" cy="61.52" r="40"/><circle class="cls-4" cx="131.44" cy="349.51" r="40"/><path class="cls-5" d="M120.23,289.8c-15.62,15.62.3-25.63-15.32-41.25s-56.87.3-41.25-15.32a40,40,0,0,1,56.57,56.57Z" transform="translate(-51.75 -51.49)"/><path class="cls-6" d="M211.83,140.48c-15.62,15.62.31-25.63-15.31-41.25s-56.88.3-41.26-15.32a40,40,0,1,1,56.57,56.57Z" transform="translate(-51.75 -51.49)"/><path class="cls-7" d="M212,429.35c-15.62,15.62.3-25.63-15.32-41.25s-56.87.3-41.25-15.32A40,40,0,0,1,212,429.35Z" transform="translate(-51.75 -51.49)"/></g><g id="Layer_2" data-name="Layer 2"><path class="cls-8" d="M270.15,56.49C374.26,56.49,456,150.3,456,256c0,112.43-105.78,199.5-185.79,199.5-10.76,0-14.21-9.8-14.21-14.95V72.19C256,68.34,255.37,56.49,270.15,56.49Z" transform="translate(-51.75 -51.49)"/><ellipse class="cls-9" cx="296.97" cy="128.21" rx="21.35" ry="27.53"/><path class="cls-9" d="M256,287.81H360s11.74,107.3-103.15,109Z" transform="translate(-51.75 -51.49)"/></g></svg>